<svg version="1.1" id="Layer_1" xmlns="http://www.w3.org/2000/svg" xmlns:xlink="http://www.w3.org/1999/xlink" x="0px" y="0px"
	 width="100%" viewBox="0 0 1024 1024" enable-background="new 0 0 1024 1024" xml:space="preserve">
<path fill="#000000" opacity="1.000000" stroke="none" 
	d="
M630.019836,765.039429 
	C628.329712,760.546753 623.720642,758.007751 621.357849,752.274475 
	C627.490479,755.491577 630.368347,760.302124 633.891724,764.211304 
	C643.438171,774.802917 652.674316,785.662964 662.724304,795.808105 
	C667.164856,800.290771 671.407288,804.961609 676.010803,809.300781 
	C678.642883,811.781677 680.787781,811.664124 683.251160,809.488159 
	C683.263977,807.382812 681.716736,806.593079 680.491516,805.566895 
	C676.570007,808.271240 674.177002,807.207886 670.231628,801.000488 
	C671.997681,799.639282 673.671631,801.183228 676.208130,801.138184 
	C674.410217,798.938721 673.071289,796.970093 671.412659,795.323608 
	C657.330627,781.344788 646.127625,764.770752 632.011230,750.921936 
	C623.927551,742.991455 616.433838,734.390747 607.295898,727.116211 
	C606.998047,727.009094 607.021729,727.041931 607.021729,727.041931 
	C603.701782,722.914185 600.662415,718.518005 597.014038,714.704468 
	C579.851135,696.764160 563.188354,678.396667 547.994507,658.739380 
	C546.960999,657.402222 545.244385,656.276184 545.906006,653.056091 
	C563.254028,672.873962 579.295715,692.893250 597.876343,712.153870 
	C597.772461,709.362793 596.510925,708.559265 595.632202,707.550537 
	C591.684937,703.019409 588.471497,697.728699 584.614380,693.399414 
	C579.072937,687.179688 576.359802,678.477844 568.204773,674.426453 
	C565.476746,673.071167 564.470032,668.770508 565.136047,666.785156 
	C566.068115,664.006409 564.631226,662.857910 563.545471,661.726929 
	C557.486938,655.415894 551.514160,648.910645 545.675842,642.515198 
	C539.455627,635.701416 530.142334,630.529175 528.512573,619.984497 
	C528.338379,618.857666 527.677917,617.725464 526.348755,617.489441 
	C522.479919,616.802429 521.538696,613.295044 519.467041,611.030090 
	C520.443298,609.253723 521.367859,611.420715 522.470459,610.185059 
	C519.734619,606.481079 516.925781,602.678223 514.044861,598.777832 
	C511.148315,600.071045 510.305634,602.503967 508.983307,604.225037 
	C508.997498,606.316284 511.492767,606.779785 511.255005,608.793701 
	C509.347839,609.514832 509.211975,606.783813 506.973511,607.016785 
	C495.999207,620.076782 486.541473,634.956726 476.078796,649.044250 
	C475.502289,648.622375 474.925812,648.200439 474.349335,647.778564 
	C485.877930,630.570862 497.406525,613.363220 509.083496,595.934021 
	C506.217865,593.230347 505.200073,596.401245 504.117310,597.897339 
	C498.190125,606.087036 492.430725,614.397949 486.592560,622.652344 
	C473.897736,640.601196 461.178345,658.532776 448.507202,676.498291 
	C447.301605,678.207642 445.750916,679.499695 446.851776,682.429688 
	C447.814758,684.992676 441.799103,690.571167 437.999939,691.298584 
	C439.051300,694.101562 437.584259,696.026428 435.908661,698.222290 
	C430.960999,704.706299 426.458496,711.528687 421.565277,718.056274 
	C419.663391,720.593384 419.063629,724.461853 414.593445,724.790771 
	C413.490112,724.871887 412.582428,727.613281 411.537781,729.203308 
	C412.753387,730.581482 413.668060,728.562927 415.500122,729.764282 
	C392.862762,765.855042 363.891846,796.694641 335.893707,828.087524 
	C333.286499,826.673157 335.621674,825.316040 334.648743,824.100952 
	C332.274780,826.584045 329.987579,828.976440 327.763245,831.303101 
	C325.577789,831.360229 325.220856,829.331604 324.002686,828.282288 
	C321.996063,830.709839 320.030334,833.087830 317.494324,836.155823 
	C316.835907,831.419556 320.649567,829.428345 321.315002,825.462830 
	C315.907349,829.570251 313.932129,837.008423 306.243622,838.208740 
	C306.400116,831.938477 312.245819,828.617126 312.569489,821.498840 
	C307.975098,826.454346 304.340363,830.428040 300.647461,834.346924 
	C292.537201,842.953613 284.266541,851.414368 276.342651,860.188721 
	C273.660767,863.158325 271.150726,860.881348 268.710938,860.672363 
	C267.012543,860.526917 265.395599,859.426025 263.412262,861.236267 
	C263.494629,855.259521 260.550232,850.201294 263.165222,844.935547 
	C263.663757,843.931702 262.962158,842.997070 262.001923,842.463562 
	C260.829651,841.812317 260.049561,842.657532 259.484558,843.414490 
	C257.067841,846.652344 253.059845,847.372314 249.944931,849.517883 
	C245.652817,852.474365 243.196899,848.897827 241.035980,846.044678 
	C239.491730,844.005737 238.390488,841.829651 235.331314,842.039917 
	C234.026596,842.129578 233.209503,841.231445 232.710068,840.074829 
	C231.158386,836.481079 228.692795,835.100891 225.192215,837.061218 
	C223.200592,835.954346 224.208298,833.221375 221.507645,832.517151 
	C219.455139,831.981934 219.931778,829.197083 220.085754,827.195496 
	C220.733627,818.773376 224.512817,811.505432 228.878021,804.597229 
	C249.172867,772.479797 270.607727,741.131714 293.023132,710.456177 
	C309.346619,688.117432 326.891113,666.816223 345.524780,646.328369 
	C358.858246,631.668091 368.532990,614.116882 380.550659,598.367920 
	C399.240448,573.875305 418.000824,549.434265 436.437256,524.751709 
	C445.447510,512.688843 444.835663,514.876770 436.799377,503.001678 
	C426.517334,487.807983 414.934265,473.593353 403.620972,459.176361 
	C402.134766,457.282471 400.267426,455.533997 401.052155,452.146271 
	C411.899353,465.327179 422.746521,478.508057 434.031433,492.066589 
	C434.684662,492.682404 434.886749,492.931488 435.182281,493.495911 
	C439.438416,498.876068 442.548828,504.843872 447.829895,508.991211 
	C445.783600,502.108307 443.173431,495.672821 437.570740,490.811890 
	C437.334015,490.533508 437.209534,490.367340 437.093628,490.194763 
	C436.575775,488.010712 435.282318,486.208679 433.837494,484.636078 
	C421.747711,471.477112 411.794952,456.631134 400.624512,442.749115 
	C399.906799,441.857117 399.075897,441.056152 398.150391,440.053253 
	C396.230774,442.031372 393.434906,443.329773 395.813599,446.953979 
	C395.354126,447.067352 394.894623,447.180695 394.435150,447.294037 
	C389.270447,439.273041 384.105713,431.252014 379.152588,423.559631 
	C379.662415,421.911987 381.003967,423.565369 381.292694,422.109222 
	C379.137268,418.335815 375.640564,415.178864 374.764374,410.561859 
	C374.547028,409.416748 373.737854,409.349945 372.681244,409.028168 
	C367.686523,407.507050 362.857391,399.928284 363.168060,396.491150 
	C352.070526,385.607666 344.730042,373.082611 335.582153,362.095184 
	C334.139648,360.362610 337.189240,361.279755 337.112000,360.266602 
	C332.187561,354.056915 327.350616,347.957581 322.513672,341.858276 
	C322.242554,342.037964 321.971436,342.217651 321.700317,342.397339 
	C324.772308,347.121399 327.844269,351.845428 330.916260,356.569489 
	C327.211365,356.139313 325.739349,353.289001 323.899353,350.995667 
	C304.152069,326.383270 286.886932,300.057281 270.366211,273.220490 
	C263.466431,262.012268 256.480927,250.855743 249.715805,239.567001 
	C248.840286,238.106049 245.621460,235.978836 249.863525,234.120285 
	C250.941498,233.647995 249.780930,231.981934 249.267334,231.007080 
	C248.267776,229.109863 247.121506,227.289963 245.940384,225.274933 
	C247.793304,224.140396 248.394363,226.108658 249.561264,226.225769 
	C250.742340,225.731094 246.959290,222.232193 251.761520,224.100922 
	C249.031693,220.163345 246.055786,217.269226 244.400681,212.159012 
	C249.049194,214.815369 250.619644,218.767456 254.161591,221.505463 
	C252.532486,212.441940 242.527802,207.431458 243.686432,196.781372 
	C259.663055,211.688080 274.670380,225.881836 287.444458,241.824432 
	C289.645264,241.883270 290.703522,239.935196 292.978821,240.304199 
	C282.176086,229.403427 276.903839,215.680496 271.217224,202.189209 
	C271.942139,201.944382 272.667084,201.699570 273.371674,201.461624 
	C273.142548,199.427383 271.257141,197.925858 271.846710,195.685989 
	C273.978149,194.877350 274.252777,197.733932 276.380554,197.701828 
	C279.383270,194.294220 281.725037,190.809280 277.646210,186.100235 
	C275.951843,184.144073 274.985291,181.612915 275.391815,178.177429 
	C280.321014,181.128830 285.777527,180.290192 291.568909,183.561615 
	C289.529999,178.665543 292.342438,175.001114 290.148285,170.930725 
	C288.637665,168.128342 291.734161,166.817276 294.211243,167.048813 
	C296.566589,167.268967 298.486145,167.478531 299.525604,164.859100 
	C299.689850,164.445175 300.433197,163.822052 300.516937,163.878403 
	C303.842743,166.114731 307.627869,163.262665 311.158173,165.106873 
	C320.773834,170.130066 328.341431,177.680679 336.195190,184.848618 
	C354.427002,201.488388 372.461487,218.468109 387.383026,238.146194 
	C396.520630,250.196609 406.407227,261.625000 415.519775,273.679993 
	C417.362396,276.117645 413.294312,277.715973 416.015930,279.974243 
	C418.493073,282.029602 419.852936,285.377228 421.938385,287.967529 
	C440.952301,311.584076 459.736908,335.397949 477.488586,359.963257 
	C490.070099,377.373962 502.373840,394.996216 515.018188,412.369598 
	C516.084900,413.835297 516.935852,415.517395 518.585083,416.374207 
	C520.535828,416.769806 521.353516,414.503784 522.596985,414.533569 
	C524.449829,414.862274 523.319031,416.546783 524.793274,417.037994 
	C526.369812,414.607056 528.082703,412.169586 529.588989,409.610443 
	C540.073120,391.798004 550.942871,374.196198 563.042603,357.466034 
	C567.746277,350.962372 571.428528,343.892120 576.173523,337.487976 
	C578.143188,334.829559 580.110107,332.177612 582.972839,330.250702 
	C584.690186,329.094757 585.739685,327.339447 586.317505,324.990753 
	C587.205994,321.379120 588.717102,317.977081 593.242371,316.771179 
	C597.759583,315.567383 598.957458,310.637665 601.081970,307.217041 
	C603.417542,303.456543 606.202026,299.909332 609.066162,296.910736 
	C614.213562,291.521790 618.477905,285.387115 623.381470,279.848663 
	C628.931580,273.579865 634.224426,266.668488 638.727966,259.387695 
	C638.980835,258.978973 638.974670,258.255798 639.306396,258.072571 
	C649.367371,252.515686 654.014893,241.688995 662.318420,234.461990 
	C671.302063,226.643082 678.655151,217.247391 687.314636,209.131989 
	C689.140503,207.420807 690.055542,205.013916 692.229797,203.539322 
	C695.179688,201.538742 697.566589,200.656097 699.191528,204.914536 
	C699.464600,205.630188 700.219604,206.161942 700.423828,206.398529 
	C707.974731,199.259903 715.480347,192.256714 722.869019,185.132309 
	C725.743958,182.360260 728.256592,179.213379 731.121338,176.429749 
	C732.992920,174.611115 734.409668,171.521790 738.099854,173.202682 
	C738.575134,173.419189 739.712463,172.290207 740.486816,171.709366 
	C741.148804,171.212799 741.922791,170.013885 742.317505,170.141953 
	C747.203125,171.727173 749.874146,168.179977 753.095703,164.607498 
	C753.697144,168.143372 751.390930,169.456253 750.866394,171.634338 
	C755.880676,169.967072 757.334656,162.834763 764.304626,162.757446 
	C757.546631,178.031464 749.192871,191.299835 740.380249,204.337646 
	C743.042114,206.037094 744.806946,205.848114 746.194702,203.409302 
	C750.621094,195.630508 758.663513,191.537262 764.675781,185.371094 
	C766.803772,183.188614 770.192566,185.868469 771.939392,183.102127 
	C773.635071,184.613342 771.663147,185.843216 772.277588,187.100952 
	C775.692749,189.365479 778.721008,189.636978 781.426025,185.764435 
	C782.409607,184.356369 784.012451,183.146057 786.045837,183.528961 
	C786.997925,184.475876 786.347778,185.474945 786.356995,186.429428 
	C786.432922,194.274719 787.720520,195.208496 795.255981,192.841736 
	C796.615906,192.414612 798.064880,192.150726 798.913757,193.414352 
	C803.228149,199.836853 808.025452,205.853302 803.888611,214.658203 
	C795.880371,231.703049 788.239624,248.962143 777.808838,264.670624 
	C769.190735,277.649231 760.448914,290.752380 750.050171,302.252533 
	C745.040771,307.792542 739.348694,312.896973 734.776428,318.957031 
	C722.936401,334.649353 711.875488,350.959503 699.127808,365.929749 
	C680.869690,387.371277 663.467590,409.497467 645.692444,431.325226 
	C644.464661,432.832947 643.425171,434.934509 640.906311,433.966370 
	C638.117981,432.894653 640.804871,430.790802 639.553406,427.560547 
	C635.671570,440.852356 628.792786,450.828491 619.622253,459.275055 
	C620.046021,459.678772 620.469849,460.082489 620.893677,460.486206 
	C623.438049,457.461029 625.982361,454.435822 628.526733,451.410645 
	C628.847778,451.722076 629.168823,452.033478 629.489868,452.344910 
	C627.924500,456.140411 625.006531,459.098236 622.371216,462.092285 
	C612.993835,472.746277 605.140198,484.558594 596.332520,495.636536 
	C594.851868,497.498810 594.378723,500.907776 590.055603,499.570404 
	C587.860535,498.891357 585.177429,505.930542 586.567749,508.372406 
	C586.896484,508.949738 587.296570,509.488129 587.683655,510.030273 
	C597.761719,524.144531 609.388245,536.886902 617.612854,552.653381 
	C630.406799,577.179077 649.304810,597.890747 665.250244,620.479004 
	C674.639832,633.780212 683.752319,647.279907 694.202332,659.821533 
	C696.599548,662.698608 698.253418,666.278503 700.798401,669.158630 
	C703.143860,671.812988 704.991272,674.616760 708.748718,676.150513 
	C712.489563,677.677307 716.301270,680.626953 714.171021,686.218384 
	C713.882507,686.975647 715.311951,688.484985 716.092041,689.537781 
	C736.520569,717.107849 756.969482,744.662781 777.401001,772.230591 
	C777.679993,772.606995 777.780457,773.115540 777.944763,773.515015 
	C776.824036,775.319458 775.486389,773.201111 774.077148,774.028259 
	C775.865662,777.139587 772.967957,777.217651 771.274292,777.429688 
	C774.155457,787.201599 780.087769,794.306946 786.080872,801.392944 
	C788.235352,803.940308 790.331665,806.555237 788.839600,810.366150 
	C787.809937,812.995850 792.197937,814.690063 790.206665,817.990662 
	C786.257874,815.765381 783.885010,811.549927 779.535889,809.930420 
	C781.262634,815.791870 786.206421,819.598267 789.711304,825.433594 
	C785.132568,824.635315 783.975647,820.615662 780.818787,819.363220 
	C780.665283,821.288696 782.358215,822.217285 782.698059,823.905945 
	C783.461182,827.698303 785.161865,831.216858 778.496460,830.483765 
	C775.554138,830.160156 774.570496,833.955566 776.463867,836.964111 
	C778.746399,840.591125 783.156250,842.276367 784.932617,846.342590 
	C785.185486,846.921448 785.398438,847.517700 785.747192,848.403992 
	C780.710876,849.546936 779.237244,844.946655 776.391907,843.142395 
	C774.555664,843.605713 776.695984,845.599426 774.436707,845.985229 
	C769.731323,842.908447 764.570251,839.533691 759.409180,836.158936 
	C759.088135,836.540527 758.767090,836.922180 758.445984,837.303833 
	C760.415344,842.550232 767.322693,843.187134 769.998108,847.959717 
	C767.966675,849.417358 766.254456,847.737366 764.285034,848.137634 
	C764.032593,849.885376 766.471741,850.977905 765.535095,853.479065 
	C760.639587,853.073669 756.665222,850.159851 752.527344,847.671021 
	C752.170654,852.899719 756.528564,855.353027 758.287598,859.751526 
	C749.573975,857.453613 740.860352,855.155762 731.889160,852.789978 
	C732.457153,856.644226 736.850464,858.678650 735.047485,862.761536 
	C732.413940,862.838440 730.991028,861.022705 729.310486,859.783875 
	C694.915894,834.429321 665.179565,804.173218 637.117065,772.152893 
	C635.037476,769.779968 632.743652,767.594788 630.274170,765.165710 
	C629.998962,765.009094 630.019836,765.039429 630.019836,765.039429 
z"/>
<path fill="#000000" opacity="1.000000" stroke="none" 
	d="
M606.983215,726.995361 
	C608.511047,729.495300 610.053650,732.008972 611.710571,734.708801 
	C610.090759,736.781189 608.558228,737.545532 606.641235,735.119934 
	C603.467957,731.104919 600.259277,727.117859 597.096558,723.094666 
	C596.381287,722.184814 595.616211,721.136597 596.703491,720.026917 
	C597.950623,718.754150 599.098511,719.423950 600.123108,720.433105 
	C602.237183,722.515198 604.334106,724.614746 606.729858,726.874512 
	C607.021729,727.041931 606.998047,727.009094 606.983215,726.995361 
z"/>
<path fill="#000000" opacity="1.000000" stroke="none" 
	d="
M534.737671,634.121643 
	C534.958069,636.191162 533.521179,636.453735 531.837036,637.304626 
	C528.322327,632.653748 524.748596,627.943542 521.200745,623.213867 
	C520.495850,622.274170 519.736267,621.177917 521.018616,620.192566 
	C522.380310,619.146301 523.466370,619.879761 524.387146,621.034180 
	C527.787476,625.297424 531.199036,629.551758 534.737671,634.121643 
z"/>
<path fill="#000000" opacity="1.000000" stroke="none" 
	d="
M780.695984,768.223145 
	C777.950195,762.112488 771.293945,759.020569 770.468872,752.010864 
	C776.934143,757.954956 782.067749,764.874390 786.748535,773.676392 
	C782.991089,772.573547 782.408447,770.059265 780.695984,768.223145 
z"/>
<path fill="#000000" opacity="1.000000" stroke="none" 
	d="
M547.216187,661.949890 
	C552.291931,663.979736 553.981018,668.286743 555.496765,672.801758 
	C550.559204,669.529907 547.247009,664.683411 542.878113,660.061890 
	C545.400879,659.269836 545.907288,661.058472 547.216187,661.949890 
z"/>
<path fill="#000000" opacity="1.000000" stroke="none" 
	d="
M721.847778,695.401489 
	C721.213440,694.318176 720.248047,693.597839 721.103638,692.501831 
	C727.132446,695.506958 731.490173,700.650879 730.395142,703.795837 
	C726.443909,702.230713 724.851074,698.299011 721.847778,695.401489 
z"/>
<path fill="#000000" opacity="1.000000" stroke="none" 
	d="
M744.159668,715.578735 
	C744.713501,716.555969 745.067139,717.271240 745.420715,717.986450 
	C745.239319,718.223633 745.057922,718.460754 744.876526,718.697937 
	C742.368652,717.143555 739.781067,715.699951 737.391174,713.981567 
	C736.403564,713.271545 735.278870,711.997498 736.456848,710.607361 
	C737.629272,709.223938 738.867249,710.028137 739.859497,711.007141 
	C741.270081,712.399109 742.596741,713.876160 744.159668,715.578735 
z"/>
<path fill="#000000" opacity="1.000000" stroke="none" 
	d="
M569.956909,688.004028 
	C571.228027,689.792542 572.921326,690.965759 573.179138,694.023132 
	C569.134399,690.865112 566.454712,687.745728 563.729431,683.220581 
	C567.452271,683.844360 568.230713,686.237793 569.956909,688.004028 
z"/>
<path fill="#000000" opacity="1.000000" stroke="none" 
	d="
M629.985352,764.996948 
	C630.207458,766.848083 632.452698,768.094727 631.598389,770.620483 
	C627.851257,769.495300 627.206604,766.320740 625.830566,763.510559 
	C627.932129,762.470032 628.443176,764.236938 629.759521,764.883789 
	C630.019836,765.039429 629.998962,765.009094 629.985352,764.996948 
z"/>
<path fill="#000000" opacity="1.000000" stroke="none" 
	d="
M436.845886,489.990997 
	C437.209534,490.367340 437.334015,490.533508 437.736633,491.118439 
	C438.396942,492.515045 439.239380,493.425140 438.428223,494.565613 
	C436.991180,494.864197 436.149506,493.744415 435.075378,493.191467 
	C434.886749,492.931488 434.684662,492.682404 434.304321,492.272156 
	C433.958557,490.742920 433.040802,489.484528 433.534943,488.008209 
	C435.180328,487.614502 435.622192,489.157227 436.845886,489.990997 
z"/>
</svg>